<svg width="54" height="48" viewBox="0 0 54 48" fill="none" xmlns="http://www.w3.org/2000/svg">
<path d="M52.8568 44.194C36.5276 48.1935 19.1806 48.6988 0.614406 44.1849C5.22055 27.0358 13.1568 12.4471 24.7785 0.682862C37.7514 11.9217 46.8958 26.6151 52.8568 44.194Z" fill="#1A1A1A" stroke="white"/>
<path d="M20.889 15.154H32.963C35.116 15.154 36.742 15.631 37.839 16.582C38.936 17.533 39.485 18.897 39.485 20.675C39.485 21.239 39.412 21.788 39.266 22.321C39.12 22.854 38.879 23.345 38.544 23.795C38.21 24.244 37.76 24.647 37.195 25.002C36.63 25.357 35.93 25.63 35.094 25.817V25.88C36.181 25.984 37.059 26.24 37.728 26.649C38.397 27.056 38.92 27.532 39.296 28.076C39.672 28.619 39.923 29.189 40.048 29.785C40.173 30.381 40.236 30.919 40.236 31.4C40.236 32.006 40.136 32.665 39.938 33.376C39.74 34.087 39.363 34.751 38.809 35.367C38.255 35.984 37.492 36.502 36.52 36.92C35.548 37.338 34.288 37.547 32.741 37.547H20.887V15.154H20.889ZM22.332 36.292H32.43C32.618 36.292 32.906 36.287 33.292 36.276C33.679 36.266 34.107 36.213 34.578 36.12C35.049 36.026 35.535 35.874 36.036 35.665C36.538 35.456 36.993 35.169 37.4 34.803C37.807 34.437 38.142 33.967 38.404 33.392C38.665 32.817 38.796 32.112 38.796 31.275C38.796 30.104 38.561 29.2 38.09 28.562C37.619 27.924 37.039 27.459 36.349 27.166C35.659 26.874 34.928 26.701 34.154 26.649C33.38 26.596 32.68 26.57 32.052 26.57H22.33V36.292H22.332ZM22.332 25.316H32.305C32.493 25.316 32.77 25.31 33.136 25.3C33.502 25.289 33.894 25.242 34.312 25.158C34.73 25.075 35.164 24.938 35.613 24.75C36.063 24.562 36.465 24.301 36.821 23.967C37.176 23.632 37.469 23.203 37.699 22.681C37.929 22.159 38.044 21.521 38.044 20.768C38.044 19.681 37.845 18.839 37.448 18.244C37.051 17.648 36.554 17.215 35.958 16.942C35.362 16.671 34.714 16.513 34.014 16.471C33.314 16.43 32.671 16.408 32.086 16.408H22.333V25.316H22.332Z" fill="#666666"/>
<path d="M23.776 36.288C23.797 38.379 24.482 40.01 25.831 41.181C27.179 42.352 29.359 42.938 32.37 42.938C33.75 42.938 34.915 42.801 35.867 42.53C36.819 42.259 37.592 41.892 38.188 41.432C38.784 40.972 39.212 40.444 39.474 39.848C39.735 39.252 39.866 38.62 39.866 37.952C39.866 37.324 39.777 36.775 39.599 36.305C39.421 35.835 39.113 35.422 38.674 35.067C38.235 34.712 37.634 34.398 36.871 34.126C36.108 33.855 35.141 33.593 33.97 33.343L29.799 32.464C28.566 32.213 27.52 31.926 26.663 31.602C25.806 31.279 25.105 30.886 24.561 30.426C24.018 29.966 23.625 29.422 23.385 28.795C23.144 28.168 23.024 27.436 23.024 26.6C23.024 25.764 23.207 24.99 23.573 24.28C23.939 23.569 24.477 22.957 25.188 22.445C25.898 21.932 26.782 21.53 27.838 21.238C28.894 20.945 30.111 20.799 31.491 20.799C32.892 20.799 34.162 20.93 35.302 21.192C36.442 21.453 37.419 21.866 38.234 22.43C39.05 22.994 39.682 23.705 40.131 24.563C40.581 25.419 40.826 26.444 40.868 27.636H39.426C39.384 26.988 39.243 26.334 39.002 25.676C38.761 25.017 38.359 24.421 37.794 23.888C37.23 23.355 36.472 22.915 35.521 22.572C34.569 22.226 33.362 22.053 31.899 22.053C30.54 22.053 29.395 22.174 28.464 22.414C27.534 22.654 26.786 22.978 26.222 23.386C25.658 23.794 25.255 24.275 25.014 24.829C24.774 25.383 24.654 25.984 24.654 26.632C24.654 27.238 24.732 27.767 24.889 28.216C25.046 28.665 25.318 29.068 25.704 29.423C26.091 29.778 26.629 30.087 27.319 30.349C28.009 30.61 28.887 30.845 29.953 31.054L34.563 31.964C35.692 32.193 36.685 32.46 37.542 32.763C38.399 33.067 39.121 33.449 39.706 33.909C40.291 34.369 40.736 34.918 41.039 35.555C41.342 36.193 41.494 36.96 41.494 37.86C41.494 38.613 41.353 39.371 41.071 40.133C40.789 40.897 40.302 41.576 39.613 42.172C38.923 42.768 38.003 43.254 36.853 43.63C35.704 44.006 34.25 44.194 32.494 44.194C30.654 44.194 29.091 44.006 27.806 43.63C26.52 43.254 25.47 42.721 24.654 42.03C23.839 41.341 23.248 40.509 22.882 39.537C22.516 38.565 22.333 37.483 22.333 36.291H23.776V36.288Z" fill="#999999"/>
<path d="M14.51 15.075H30.812V16.334H15.957V25.272H29.994V26.531H15.957V37.547H14.51V15.075Z" fill="#CCCCCC"/>
<path d="M30.829 15.059H14.539V16.447H30.829V15.059Z" fill="#CCCCCC"/>
<path d="M29.957 25.271H14.492V26.659H29.957V25.271Z" fill="#CCCCCC"/>
</svg>
