<svg width="178" height="48" viewBox="0 0 178 48" fill="none" xmlns="http://www.w3.org/2000/svg">
<path d="M52.8568 44.194C36.5276 48.1935 19.1806 48.6988 0.614406 44.1849C5.22055 27.0358 13.1568 12.4471 24.7785 0.682862C37.7514 11.9217 46.8958 26.6151 52.8568 44.194Z" fill="#1A1A1A" stroke="white"/>
<path d="M20.889 15.154H32.963C35.116 15.154 36.742 15.631 37.839 16.582C38.936 17.533 39.485 18.897 39.485 20.675C39.485 21.239 39.412 21.788 39.266 22.321C39.12 22.854 38.879 23.345 38.544 23.795C38.21 24.244 37.76 24.647 37.195 25.002C36.63 25.357 35.93 25.63 35.094 25.817V25.88C36.181 25.984 37.059 26.24 37.728 26.649C38.397 27.056 38.92 27.532 39.296 28.076C39.672 28.619 39.923 29.189 40.048 29.785C40.173 30.381 40.236 30.919 40.236 31.4C40.236 32.006 40.136 32.665 39.938 33.376C39.74 34.087 39.363 34.751 38.809 35.367C38.255 35.984 37.492 36.502 36.52 36.92C35.548 37.338 34.288 37.547 32.741 37.547H20.887V15.154H20.889ZM22.332 36.292H32.43C32.618 36.292 32.906 36.287 33.292 36.276C33.679 36.266 34.107 36.213 34.578 36.12C35.049 36.026 35.535 35.874 36.036 35.665C36.538 35.456 36.993 35.169 37.4 34.803C37.807 34.437 38.142 33.967 38.404 33.392C38.665 32.817 38.796 32.112 38.796 31.275C38.796 30.104 38.561 29.2 38.09 28.562C37.619 27.924 37.039 27.459 36.349 27.166C35.659 26.874 34.928 26.701 34.154 26.649C33.38 26.596 32.68 26.57 32.052 26.57H22.33V36.292H22.332ZM22.332 25.316H32.305C32.493 25.316 32.77 25.31 33.136 25.3C33.502 25.289 33.894 25.242 34.312 25.158C34.73 25.075 35.164 24.938 35.613 24.75C36.063 24.562 36.465 24.301 36.821 23.967C37.176 23.632 37.469 23.203 37.699 22.681C37.929 22.159 38.044 21.521 38.044 20.768C38.044 19.681 37.845 18.839 37.448 18.244C37.051 17.648 36.554 17.215 35.958 16.942C35.362 16.671 34.714 16.513 34.014 16.471C33.314 16.43 32.671 16.408 32.086 16.408H22.333V25.316H22.332Z" fill="#666666"/>
<path d="M23.7759 36.288C23.7969 38.379 24.4819 40.01 25.8309 41.181C27.1789 42.352 29.3589 42.938 32.3699 42.938C33.7499 42.938 34.9149 42.801 35.8669 42.53C36.8189 42.259 37.5919 41.892 38.1879 41.432C38.7839 40.972 39.2119 40.444 39.4739 39.848C39.7349 39.252 39.8659 38.62 39.8659 37.952C39.8659 37.324 39.7769 36.775 39.5989 36.305C39.4209 35.835 39.1129 35.422 38.6739 35.067C38.2349 34.712 37.6339 34.398 36.8709 34.126C36.1079 33.855 35.1409 33.593 33.9699 33.343L29.7989 32.464C28.5659 32.213 27.5199 31.926 26.6629 31.602C25.8059 31.279 25.1049 30.886 24.5609 30.426C24.0179 29.966 23.6249 29.422 23.3849 28.795C23.1439 28.168 23.0239 27.436 23.0239 26.6C23.0239 25.764 23.2069 24.99 23.5729 24.28C23.9389 23.569 24.4769 22.957 25.1879 22.445C25.8979 21.932 26.7819 21.53 27.8379 21.238C28.8939 20.945 30.1109 20.799 31.4909 20.799C32.8919 20.799 34.1619 20.93 35.3019 21.192C36.4419 21.453 37.4189 21.866 38.2339 22.43C39.0499 22.994 39.6819 23.705 40.1309 24.563C40.5809 25.419 40.8259 26.444 40.8679 27.636H39.4259C39.3839 26.988 39.2429 26.334 39.0019 25.676C38.7609 25.017 38.3589 24.421 37.7939 23.888C37.2299 23.355 36.4719 22.915 35.5209 22.572C34.5689 22.226 33.3619 22.053 31.8989 22.053C30.5399 22.053 29.3949 22.174 28.4639 22.414C27.5339 22.654 26.7859 22.978 26.2219 23.386C25.6579 23.794 25.2549 24.275 25.0139 24.829C24.7739 25.383 24.6539 25.984 24.6539 26.632C24.6539 27.238 24.7319 27.767 24.8889 28.216C25.0459 28.665 25.3179 29.068 25.7039 29.423C26.0909 29.778 26.6289 30.087 27.3189 30.349C28.0089 30.61 28.8869 30.845 29.9529 31.054L34.5629 31.964C35.6919 32.193 36.6849 32.46 37.5419 32.763C38.3989 33.067 39.1209 33.449 39.7059 33.909C40.2909 34.369 40.7359 34.918 41.0389 35.555C41.3419 36.193 41.4939 36.96 41.4939 37.86C41.4939 38.613 41.3529 39.371 41.0709 40.133C40.7889 40.897 40.3019 41.576 39.6129 42.172C38.9229 42.768 38.0029 43.254 36.8529 43.63C35.7039 44.006 34.2499 44.194 32.4939 44.194C30.6539 44.194 29.0909 44.006 27.8059 43.63C26.5199 43.254 25.4699 42.721 24.6539 42.03C23.8389 41.341 23.2479 40.509 22.8819 39.537C22.5159 38.565 22.3329 37.483 22.3329 36.291H23.7759V36.288Z" fill="#999999"/>
<path d="M14.51 15.075H30.812V16.334H15.957V25.272H29.994V26.531H15.957V37.547H14.51V15.075Z" fill="#CCCCCC"/>
<path d="M30.829 15.059H14.539V16.447H30.829V15.059Z" fill="#CCCCCC"/>
<path d="M29.957 25.271H14.492V26.659H29.957V25.271Z" fill="#CCCCCC"/>
<path d="M49.408 10.23H57.109V10.868H50.092V15.396H56.723V16.034H50.092V21.614H49.408V10.23ZM59.495 15.795H64.119C64.228 15.795 64.379 15.79 64.573 15.779C64.766 15.768 64.974 15.739 65.198 15.691C65.421 15.643 65.649 15.569 65.882 15.467C66.115 15.366 66.323 15.22 66.506 15.029C66.69 14.839 66.841 14.593 66.96 14.296C67.079 13.999 67.139 13.632 67.139 13.196C67.139 12.739 67.062 12.358 66.909 12.055C66.755 11.752 66.547 11.513 66.284 11.338C66.022 11.162 65.72 11.04 65.378 10.971C65.036 10.902 64.676 10.867 64.3 10.867H59.498V15.795H59.495ZM58.811 10.23H64.237C64.743 10.23 65.216 10.275 65.657 10.366C66.098 10.456 66.477 10.616 66.795 10.844C67.112 11.073 67.362 11.381 67.545 11.769C67.728 12.158 67.82 12.649 67.82 13.245C67.82 13.553 67.778 13.853 67.694 14.145C67.61 14.437 67.479 14.711 67.3 14.966C67.122 15.221 66.896 15.445 66.624 15.636C66.352 15.827 66.027 15.971 65.65 16.067V16.098C66.304 16.184 66.797 16.444 67.129 16.879C67.461 17.314 67.632 17.841 67.642 18.458C67.652 18.989 67.664 19.431 67.679 19.781C67.694 20.131 67.711 20.427 67.731 20.666C67.751 20.905 67.778 21.097 67.813 21.24C67.848 21.383 67.89 21.508 67.939 21.614H67.255C67.155 21.518 67.086 21.271 67.047 20.873C67.007 20.475 66.978 19.84 66.958 18.968C66.948 18.479 66.899 18.07 66.81 17.74C66.721 17.41 66.572 17.15 66.364 16.959C66.156 16.768 65.878 16.632 65.531 16.552C65.184 16.473 64.748 16.433 64.223 16.433H59.495V21.615H58.811V10.23ZM69.403 15.923C69.403 15.551 69.443 15.147 69.522 14.711C69.601 14.274 69.73 13.837 69.909 13.396C70.087 12.955 70.32 12.53 70.608 12.121C70.895 11.712 71.247 11.348 71.663 11.028C72.08 10.71 72.565 10.454 73.12 10.263C73.675 10.072 74.314 9.976 75.038 9.976C75.752 9.976 76.389 10.072 76.948 10.263C77.508 10.453 77.996 10.709 78.413 11.028C78.829 11.347 79.181 11.712 79.468 12.121C79.755 12.53 79.988 12.955 80.167 13.396C80.345 13.837 80.474 14.275 80.553 14.711C80.633 15.147 80.672 15.551 80.672 15.923C80.672 16.295 80.632 16.698 80.553 17.135C80.474 17.571 80.345 18.009 80.167 18.449C79.988 18.89 79.755 19.315 79.468 19.724C79.181 20.134 78.828 20.497 78.413 20.817C77.996 21.136 77.508 21.391 76.948 21.583C76.388 21.773 75.752 21.87 75.038 21.87C74.324 21.87 73.687 21.773 73.127 21.583C72.567 21.392 72.079 21.137 71.663 20.817C71.247 20.497 70.895 20.134 70.608 19.724C70.32 19.315 70.087 18.89 69.909 18.449C69.73 18.009 69.601 17.57 69.522 17.135C69.443 16.698 69.403 16.295 69.403 15.923ZM70.087 15.923C70.087 16.603 70.196 17.262 70.414 17.9C70.632 18.538 70.949 19.104 71.365 19.598C71.782 20.092 72.297 20.488 72.911 20.786C73.525 21.084 74.234 21.232 75.037 21.232C75.84 21.232 76.548 21.084 77.162 20.786C77.777 20.488 78.292 20.093 78.708 19.598C79.124 19.103 79.441 18.537 79.66 17.9C79.878 17.262 79.987 16.603 79.987 15.923C79.987 15.242 79.878 14.583 79.66 13.945C79.442 13.307 79.124 12.741 78.708 12.247C78.292 11.753 77.776 11.357 77.162 11.059C76.548 10.761 75.839 10.613 75.037 10.613C74.235 10.613 73.526 10.761 72.911 11.059C72.296 11.357 71.781 11.752 71.365 12.247C70.949 12.741 70.632 13.308 70.414 13.945C70.196 14.583 70.087 15.242 70.087 15.923ZM88.231 15.938H93.182V21.614H92.587V18.808H92.557C92.36 19.318 92.102 19.764 91.785 20.147C91.468 20.53 91.108 20.848 90.707 21.104C90.306 21.359 89.867 21.55 89.392 21.678C88.916 21.805 88.425 21.869 87.92 21.869C87.117 21.869 86.371 21.735 85.683 21.471C84.994 21.204 84.397 20.817 83.892 20.306C83.386 19.796 82.989 19.175 82.702 18.441C82.414 17.708 82.271 16.868 82.271 15.922C82.271 15.231 82.382 14.532 82.605 13.825C82.828 13.118 83.17 12.48 83.631 11.911C84.092 11.343 84.679 10.878 85.393 10.516C86.107 10.154 86.949 9.974 87.92 9.974C88.574 9.974 89.179 10.059 89.733 10.229C90.289 10.399 90.784 10.646 91.219 10.97C91.656 11.294 92.023 11.693 92.32 12.166C92.618 12.639 92.831 13.184 92.959 13.8H92.275C92.167 13.279 91.978 12.82 91.711 12.421C91.444 12.022 91.116 11.688 90.73 11.416C90.343 11.145 89.913 10.943 89.437 10.811C88.96 10.678 88.456 10.612 87.92 10.612C87.156 10.612 86.471 10.753 85.861 11.034C85.251 11.316 84.73 11.702 84.299 12.19C83.868 12.679 83.536 13.245 83.303 13.888C83.07 14.531 82.953 15.208 82.953 15.921C82.953 16.633 83.059 17.311 83.273 17.953C83.486 18.597 83.801 19.16 84.217 19.643C84.633 20.126 85.152 20.512 85.771 20.799C86.39 21.085 87.107 21.229 87.919 21.229C88.583 21.229 89.19 21.123 89.74 20.911C90.29 20.698 90.761 20.39 91.152 19.986C91.543 19.582 91.856 19.093 92.089 18.519C92.322 17.945 92.458 17.296 92.498 16.574H88.23V15.938H88.231ZM95.552 10.23H96.414L104.339 20.593H104.368V10.23H105.052V21.614H104.19L96.266 11.251H96.237V21.614H95.552V10.23ZM107.423 10.23H115.808V10.868H108.107V15.396H115.496V16.034H108.107V20.976H115.897V21.614H107.423V10.23ZM118.326 15.795H122.95C123.059 15.795 123.211 15.79 123.403 15.779C123.596 15.768 123.805 15.739 124.028 15.691C124.251 15.643 124.479 15.569 124.712 15.467C124.945 15.366 125.153 15.22 125.336 15.029C125.52 14.839 125.671 14.593 125.79 14.296C125.908 13.999 125.968 13.632 125.968 13.196C125.968 12.739 125.892 12.358 125.738 12.055C125.585 11.752 125.377 11.513 125.114 11.338C124.851 11.162 124.55 11.04 124.207 10.971C123.865 10.902 123.506 10.867 123.13 10.867H118.327V15.795H118.326ZM117.643 10.23H123.07C123.575 10.23 124.049 10.275 124.49 10.366C124.93 10.456 125.31 10.616 125.627 10.844C125.944 11.073 126.194 11.381 126.378 11.769C126.562 12.158 126.653 12.649 126.653 13.245C126.653 13.553 126.611 13.853 126.526 14.145C126.442 14.437 126.311 14.711 126.132 14.966C125.953 15.221 125.729 15.445 125.455 15.636C125.183 15.827 124.858 15.971 124.481 16.067V16.098C125.135 16.184 125.628 16.444 125.96 16.879C126.292 17.314 126.463 17.841 126.473 18.458C126.483 18.989 126.495 19.431 126.51 19.781C126.525 20.131 126.542 20.427 126.562 20.666C126.583 20.905 126.61 21.097 126.644 21.24C126.679 21.383 126.721 21.508 126.77 21.614H126.086C125.987 21.518 125.918 21.271 125.878 20.873C125.838 20.475 125.809 19.84 125.789 18.968C125.779 18.479 125.729 18.07 125.641 17.74C125.551 17.41 125.403 17.15 125.195 16.959C124.987 16.768 124.71 16.632 124.362 16.552C124.015 16.473 123.58 16.433 123.054 16.433H118.325V21.615H117.641V10.23H117.643ZM131.996 10.23H137.72C138.741 10.23 139.512 10.472 140.032 10.956C140.553 11.439 140.812 12.133 140.812 13.036C140.812 13.324 140.778 13.602 140.708 13.874C140.639 14.145 140.524 14.395 140.366 14.623C140.207 14.852 139.995 15.056 139.727 15.237C139.458 15.418 139.126 15.555 138.73 15.651V15.683C139.246 15.736 139.663 15.866 139.979 16.074C140.296 16.281 140.544 16.523 140.722 16.8C140.901 17.076 141.02 17.366 141.078 17.669C141.139 17.972 141.168 18.245 141.168 18.489C141.168 18.798 141.121 19.133 141.026 19.494C140.932 19.855 140.754 20.192 140.491 20.506C140.228 20.82 139.867 21.083 139.406 21.296C138.945 21.508 138.347 21.614 137.615 21.614H131.995V10.23H131.996ZM132.68 20.976H137.467C137.557 20.976 137.693 20.974 137.876 20.968C138.06 20.963 138.263 20.937 138.485 20.889C138.709 20.84 138.938 20.764 139.176 20.658C139.413 20.552 139.629 20.405 139.822 20.22C140.015 20.033 140.174 19.794 140.299 19.502C140.422 19.21 140.485 18.852 140.485 18.426C140.485 17.83 140.374 17.37 140.15 17.047C139.927 16.723 139.652 16.486 139.325 16.337C138.999 16.189 138.651 16.101 138.285 16.074C137.918 16.048 137.586 16.034 137.289 16.034H132.68V20.976ZM132.68 15.396H137.409C137.498 15.396 137.629 15.393 137.803 15.388C137.976 15.382 138.162 15.359 138.361 15.316C138.559 15.274 138.764 15.205 138.978 15.109C139.191 15.013 139.381 14.88 139.55 14.711C139.718 14.541 139.857 14.323 139.966 14.058C140.074 13.791 140.129 13.467 140.129 13.084C140.129 12.532 140.035 12.104 139.847 11.801C139.659 11.498 139.423 11.278 139.141 11.14C138.859 11.001 138.551 10.922 138.219 10.901C137.887 10.88 137.582 10.869 137.305 10.869H132.681V15.396H132.68ZM142.127 10.23H143.079L147.39 16.145L151.79 10.23H152.652L147.731 16.831V21.614H147.047V16.831L142.127 10.23ZM159.484 15.938H164.434V21.614H163.839V18.808H163.81C163.612 19.318 163.354 19.764 163.037 20.147C162.721 20.53 162.361 20.848 161.96 21.104C161.559 21.359 161.119 21.55 160.644 21.678C160.168 21.805 159.678 21.869 159.172 21.869C158.369 21.869 157.623 21.735 156.935 21.471C156.247 21.204 155.649 20.817 155.144 20.306C154.638 19.796 154.242 19.175 153.955 18.441C153.667 17.708 153.523 16.868 153.523 15.922C153.523 15.231 153.634 14.532 153.858 13.825C154.081 13.118 154.422 12.48 154.883 11.911C155.344 11.343 155.931 10.878 156.645 10.516C157.359 10.154 158.202 9.974 159.172 9.974C159.826 9.974 160.431 10.059 160.985 10.229C161.541 10.399 162.036 10.646 162.472 10.97C162.908 11.294 163.275 11.693 163.572 12.166C163.87 12.639 164.083 13.184 164.212 13.8H163.528C163.419 13.279 163.23 12.82 162.963 12.421C162.696 12.022 162.368 11.688 161.983 11.416C161.596 11.145 161.165 10.943 160.689 10.811C160.213 10.679 159.708 10.612 159.172 10.612C158.409 10.612 157.723 10.753 157.113 11.034C156.504 11.316 155.983 11.702 155.551 12.19C155.12 12.679 154.788 13.245 154.555 13.888C154.323 14.532 154.205 15.208 154.205 15.921C154.205 16.633 154.312 17.311 154.525 17.953C154.738 18.597 155.052 19.16 155.469 19.643C155.885 20.126 156.403 20.512 157.022 20.799C157.642 21.085 158.358 21.229 159.17 21.229C159.834 21.229 160.441 21.123 160.991 20.911C161.541 20.698 162.012 20.39 162.403 19.986C162.794 19.582 163.107 19.093 163.34 18.519C163.573 17.945 163.709 17.296 163.749 16.574H159.482V15.938H159.484ZM172.454 15.938H177.404V21.614H176.809V18.808H176.78C176.582 19.318 176.324 19.764 176.007 20.147C175.69 20.53 175.33 20.848 174.929 21.104C174.528 21.359 174.089 21.55 173.614 21.678C173.138 21.805 172.648 21.869 172.142 21.869C171.339 21.869 170.593 21.735 169.905 21.471C169.216 21.204 168.619 20.817 168.114 20.306C167.608 19.796 167.212 19.175 166.925 18.441C166.637 17.708 166.493 16.868 166.493 15.922C166.493 15.231 166.604 14.532 166.828 13.825C167.051 13.118 167.392 12.48 167.853 11.911C168.314 11.343 168.901 10.878 169.615 10.516C170.329 10.154 171.171 9.974 172.142 9.974C172.796 9.974 173.401 10.059 173.955 10.229C174.511 10.399 175.006 10.646 175.441 10.97C175.878 11.294 176.245 11.693 176.542 12.166C176.84 12.639 177.053 13.184 177.181 13.8H176.497C176.389 13.279 176.2 12.82 175.933 12.421C175.666 12.022 175.338 11.688 174.952 11.416C174.565 11.145 174.135 10.943 173.659 10.811C173.182 10.678 172.678 10.612 172.142 10.612C171.378 10.612 170.692 10.753 170.083 11.034C169.473 11.316 168.952 11.702 168.521 12.19C168.09 12.679 167.758 13.245 167.525 13.888C167.292 14.531 167.175 15.208 167.175 15.921C167.175 16.633 167.281 17.311 167.495 17.953C167.708 18.597 168.022 19.16 168.438 19.643C168.854 20.126 169.373 20.512 169.992 20.799C170.611 21.085 171.328 21.229 172.14 21.229C172.804 21.229 173.411 21.123 173.961 20.911C174.511 20.698 174.982 20.39 175.373 19.986C175.764 19.582 176.077 19.093 176.31 18.519C176.543 17.945 176.679 17.296 176.719 16.574H172.452V15.938H172.454ZM68.438 36.507C68.448 37.57 68.772 38.399 69.412 38.994C70.051 39.589 71.085 39.887 72.512 39.887C73.166 39.887 73.719 39.818 74.17 39.679C74.621 39.541 74.988 39.356 75.27 39.121C75.552 38.888 75.755 38.619 75.88 38.316C76.004 38.012 76.066 37.691 76.066 37.351C76.066 37.033 76.024 36.753 75.94 36.514C75.856 36.275 75.71 36.065 75.502 35.884C75.294 35.703 75.009 35.543 74.648 35.405C74.286 35.267 73.828 35.134 73.273 35.007L71.295 34.561C70.711 34.433 70.215 34.287 69.809 34.122C69.402 33.958 69.07 33.759 68.813 33.525C68.555 33.291 68.37 33.014 68.255 32.695C68.141 32.377 68.084 32.005 68.084 31.58C68.084 31.154 68.171 30.761 68.344 30.4C68.517 30.039 68.773 29.727 69.11 29.466C69.447 29.206 69.866 29.001 70.366 28.853C70.866 28.704 71.444 28.629 72.097 28.629C72.762 28.629 73.364 28.695 73.904 28.828C74.444 28.961 74.907 29.172 75.294 29.458C75.68 29.745 75.98 30.106 76.193 30.542C76.406 30.979 76.523 31.499 76.542 32.105H75.858C75.838 31.776 75.771 31.444 75.657 31.109C75.543 30.774 75.352 30.471 75.085 30.2C74.817 29.929 74.458 29.706 74.007 29.531C73.556 29.355 72.984 29.267 72.29 29.267C71.646 29.267 71.103 29.329 70.663 29.451C70.222 29.573 69.868 29.738 69.6 29.945C69.332 30.153 69.142 30.397 69.028 30.678C68.914 30.959 68.857 31.266 68.857 31.595C68.857 31.903 68.894 32.172 68.968 32.401C69.043 32.629 69.172 32.834 69.355 33.014C69.539 33.195 69.794 33.352 70.121 33.485C70.448 33.618 70.864 33.737 71.37 33.843L73.556 34.305C74.091 34.422 74.562 34.558 74.968 34.712C75.374 34.866 75.717 35.06 75.994 35.294C76.271 35.527 76.482 35.807 76.625 36.131C76.769 36.455 76.841 36.846 76.841 37.303C76.841 37.686 76.774 38.071 76.64 38.459C76.507 38.847 76.276 39.192 75.949 39.495C75.621 39.798 75.185 40.045 74.641 40.236C74.096 40.427 73.407 40.523 72.574 40.523C71.702 40.523 70.961 40.427 70.351 40.236C69.742 40.045 69.244 39.773 68.857 39.423C68.471 39.072 68.191 38.65 68.017 38.156C67.844 37.661 67.757 37.111 67.757 36.506H68.438V36.507ZM78.732 28.885H87.117V29.524H79.415V34.051H86.804V34.689H79.415V39.631H87.206V40.27H78.732V28.885ZM89.636 34.45H94.26C94.368 34.45 94.52 34.444 94.713 34.433C94.906 34.422 95.114 34.394 95.338 34.345C95.561 34.297 95.788 34.223 96.022 34.121C96.254 34.02 96.462 33.875 96.646 33.683C96.83 33.491 96.981 33.247 97.1 32.95C97.218 32.652 97.278 32.285 97.278 31.849C97.278 31.392 97.202 31.012 97.048 30.709C96.895 30.406 96.687 30.166 96.424 29.991C96.161 29.815 95.859 29.693 95.517 29.625C95.175 29.556 94.816 29.521 94.44 29.521H89.637V34.45H89.636ZM88.952 28.885H94.379C94.884 28.885 95.358 28.931 95.798 29.021C96.239 29.112 96.618 29.271 96.936 29.5C97.254 29.729 97.503 30.037 97.687 30.425C97.871 30.813 97.961 31.304 97.961 31.9C97.961 32.209 97.919 32.508 97.835 32.801C97.751 33.093 97.62 33.366 97.441 33.622C97.262 33.877 97.037 34.1 96.764 34.291C96.491 34.482 96.167 34.626 95.79 34.722V34.754C96.444 34.839 96.937 35.099 97.269 35.535C97.601 35.971 97.773 36.497 97.783 37.113C97.793 37.644 97.805 38.086 97.82 38.436C97.835 38.786 97.852 39.082 97.872 39.321C97.893 39.56 97.919 39.752 97.954 39.895C97.989 40.038 98.03 40.164 98.08 40.27H97.396C97.296 40.173 97.228 39.927 97.188 39.529C97.148 39.13 97.119 38.495 97.099 37.623C97.089 37.135 97.039 36.725 96.95 36.395C96.861 36.066 96.713 35.805 96.505 35.614C96.296 35.423 96.02 35.288 95.672 35.208C95.325 35.128 94.889 35.088 94.364 35.088H89.635V40.271H88.951V28.885H88.952ZM99.128 28.885H99.901L104.227 39.345L108.553 28.885H109.325L104.612 40.27H103.84L99.128 28.885ZM110.671 28.885H111.355V40.27H110.671V28.885ZM124.132 35.948C124.072 36.49 123.916 37.033 123.664 37.575C123.411 38.117 123.064 38.608 122.623 39.05C122.183 39.49 121.651 39.847 121.032 40.118C120.413 40.389 119.707 40.524 118.914 40.524C118.111 40.524 117.365 40.391 116.677 40.126C115.988 39.859 115.391 39.472 114.886 38.962C114.379 38.452 113.984 37.83 113.696 37.097C113.409 36.363 113.265 35.524 113.265 34.577C113.265 33.887 113.376 33.187 113.6 32.48C113.823 31.773 114.164 31.135 114.625 30.567C115.086 29.999 115.673 29.533 116.387 29.172C117.101 28.81 117.943 28.629 118.914 28.629C119.548 28.629 120.143 28.709 120.698 28.868C121.253 29.027 121.749 29.266 122.184 29.586C122.62 29.904 122.99 30.303 123.291 30.781C123.594 31.26 123.813 31.817 123.953 32.456H123.268C123.139 31.914 122.934 31.44 122.652 31.037C122.369 30.633 122.035 30.301 121.648 30.04C121.261 29.779 120.835 29.586 120.37 29.458C119.904 29.331 119.418 29.267 118.913 29.267C118.149 29.267 117.463 29.408 116.853 29.69C116.244 29.971 115.723 30.357 115.292 30.846C114.86 31.334 114.528 31.901 114.296 32.543C114.063 33.187 113.946 33.864 113.946 34.576C113.946 35.288 114.052 35.966 114.266 36.609C114.479 37.252 114.793 37.815 115.209 38.298C115.625 38.782 116.144 39.167 116.763 39.454C117.382 39.741 118.099 39.885 118.911 39.885C119.496 39.885 120.043 39.794 120.554 39.614C121.065 39.434 121.516 39.176 121.907 38.841C122.299 38.507 122.629 38.095 122.896 37.606C123.163 37.117 123.347 36.564 123.446 35.948H124.132ZM126.146 28.885H134.531V29.524H126.831V34.051H134.22V34.689H126.831V39.631H134.621V40.27H126.146V28.885ZM141.213 35.965H146.535L143.874 29.714L141.213 35.965ZM143.488 28.885H144.261L149.137 40.27H148.364L146.803 36.602H140.946L139.385 40.27H138.612L143.488 28.885ZM150.659 36.507C150.67 37.57 150.994 38.399 151.634 38.994C152.273 39.589 153.306 39.887 154.734 39.887C155.388 39.887 155.941 39.818 156.391 39.679C156.842 39.541 157.209 39.356 157.492 39.121C157.774 38.888 157.977 38.619 158.101 38.316C158.225 38.012 158.287 37.691 158.287 37.351C158.287 37.033 158.246 36.753 158.161 36.514C158.077 36.275 157.931 36.065 157.723 35.884C157.515 35.703 157.23 35.543 156.869 35.405C156.507 35.267 156.049 35.134 155.493 35.007L153.515 34.561C152.931 34.433 152.435 34.287 152.029 34.122C151.623 33.958 151.291 33.759 151.033 33.525C150.776 33.291 150.59 33.014 150.475 32.695C150.362 32.377 150.304 32.005 150.304 31.58C150.304 31.154 150.391 30.761 150.565 30.4C150.738 30.039 150.993 29.727 151.331 29.466C151.668 29.206 152.086 29.001 152.587 28.853C153.088 28.704 153.665 28.629 154.319 28.629C154.983 28.629 155.585 28.695 156.125 28.828C156.665 28.961 157.129 29.172 157.516 29.458C157.903 29.745 158.203 30.106 158.415 30.542C158.628 30.979 158.744 31.499 158.765 32.105H158.08C158.06 31.776 157.994 31.444 157.88 31.109C157.766 30.774 157.575 30.471 157.308 30.2C157.04 29.929 156.681 29.706 156.23 29.531C155.779 29.355 155.207 29.267 154.513 29.267C153.868 29.267 153.325 29.329 152.885 29.451C152.444 29.573 152.089 29.738 151.822 29.945C151.554 30.153 151.364 30.397 151.25 30.678C151.136 30.959 151.079 31.266 151.079 31.595C151.079 31.903 151.116 32.172 151.19 32.401C151.264 32.629 151.393 32.834 151.577 33.014C151.761 33.194 152.015 33.352 152.343 33.485C152.671 33.618 153.086 33.737 153.592 33.843L155.778 34.305C156.313 34.422 156.784 34.558 157.19 34.712C157.596 34.866 157.938 35.06 158.215 35.294C158.493 35.527 158.703 35.807 158.847 36.131C158.991 36.455 159.063 36.846 159.063 37.303C159.063 37.686 158.996 38.071 158.862 38.459C158.728 38.847 158.498 39.192 158.172 39.495C157.845 39.798 157.408 40.045 156.863 40.236C156.317 40.427 155.629 40.523 154.797 40.523C153.925 40.523 153.184 40.427 152.574 40.236C151.964 40.045 151.467 39.773 151.08 39.423C150.693 39.073 150.413 38.65 150.24 38.156C150.066 37.661 149.979 37.111 149.979 36.506H150.659V36.507Z" fill="white"/>
</svg>
